<?xml version="1.0" encoding="UTF-8" standalone="no"?>
<!-- Created with Inkscape (http://www.inkscape.org/) -->

<svg
   width="210mm"
   height="297mm"
   viewBox="0 0 210 297"
   version="1.1"
   id="svg1"
   sodipodi:docname="response.svg"
   inkscape:version="1.3.2 (091e20ef0f, 2023-11-25, custom)"
   xmlns:inkscape="http://www.inkscape.org/namespaces/inkscape"
   xmlns:sodipodi="http://sodipodi.sourceforge.net/DTD/sodipodi-0.dtd"
   xmlns="http://www.w3.org/2000/svg"
   xmlns:svg="http://www.w3.org/2000/svg">
  <sodipodi:namedview
     id="namedview1"
     pagecolor="#ffffff"
     bordercolor="#666666"
     borderopacity="1.0"
     inkscape:showpageshadow="2"
     inkscape:pageopacity="0.0"
     inkscape:pagecheckerboard="0"
     inkscape:deskcolor="#d1d1d1"
     inkscape:document-units="mm"
     inkscape:zoom="1.6820162"
     inkscape:cx="63.316868"
     inkscape:cy="452.43321"
     inkscape:window-width="2540"
     inkscape:window-height="1396"
     inkscape:window-x="10"
     inkscape:window-y="34"
     inkscape:window-maximized="1"
     inkscape:current-layer="layer1"
     showguides="true" />
  <defs
     id="defs1" />
  <g
     inkscape:label="Layer 1"
     inkscape:groupmode="layer"
     id="layer1">
    <rect
       style="fill:none;fill-opacity:1;stroke:#cc0000;stroke-width:0.200001;stroke-dasharray:none;stroke-opacity:1"
       id="rect46"
       width="15.062936"
       height="4.0388865"
       x="26.630589"
       y="98.371788" />
    <rect
       style="fill:none;fill-opacity:1;stroke:#cc0000;stroke-width:0.199999;stroke-dasharray:none;stroke-opacity:1"
       id="rect47"
       width="6.7245045"
       height="4.0389018"
       x="42.274464"
       y="98.37178" />
    <text
       xml:space="preserve"
       style="font-size:3.52777px;line-height:1.45;font-family:'Open Sans';-inkscape-font-specification:'Open Sans';letter-spacing:0px;word-spacing:0px;stroke-width:0.264583"
       x="26.710894"
       y="101.42806"
       id="text1"><tspan
         sodipodi:role="line"
         style="line-height:1.45;stroke-width:0.264583"
         x="26.710894"
         y="101.42806"
         id="tspan8">HTTP/1.1 200 OK</tspan><tspan
         sodipodi:role="line"
         style="line-height:1.45;stroke-width:0.264583"
         x="26.710894"
         y="106.54333"
         id="tspan15">Content-Type: text/html</tspan><tspan
         sodipodi:role="line"
         style="line-height:1.45;stroke-width:0.264583"
         x="26.710894"
         y="111.65859"
         id="tspan16">Content-Length: 153</tspan><tspan
         sodipodi:role="line"
         style="line-height:1.45;stroke-width:0.264583"
         x="26.710894"
         y="116.77386"
         id="tspan17"></tspan><tspan
         sodipodi:role="line"
         style="line-height:1.45;stroke-width:0.264583"
         x="26.710894"
         y="121.88913"
         id="tspan18">&lt;!DOCTYPE html&gt;</tspan><tspan
         sodipodi:role="line"
         style="line-height:1.45;stroke-width:0.264583"
         x="26.710894"
         y="127.00439"
         id="tspan19">&lt;html&gt;</tspan><tspan
         sodipodi:role="line"
         style="line-height:1.45;stroke-width:0.264583"
         x="26.710894"
         y="132.11966"
         id="tspan20">    &lt;body&gt;</tspan><tspan
         sodipodi:role="line"
         style="line-height:1.45;stroke-width:0.264583"
         x="26.710894"
         y="137.23492"
         id="tspan21">        &lt;h1&gt;Form response&lt;/h1&gt;</tspan><tspan
         sodipodi:role="line"
         style="line-height:1.45;stroke-width:0.264583"
         x="26.710894"
         y="142.35019"
         id="tspan22">        &lt;p&gt;hello world&lt;/p&gt;</tspan><tspan
         sodipodi:role="line"
         style="line-height:1.45;stroke-width:0.264583"
         x="26.710894"
         y="147.46547"
         id="tspan23">        &lt;a href=&quot;/form&quot;&gt;Back to form&lt;/a&gt;</tspan><tspan
         sodipodi:role="line"
         style="line-height:1.45;stroke-width:0.264583"
         x="26.710894"
         y="152.58073"
         id="tspan24">    &lt;/body&gt;</tspan><tspan
         sodipodi:role="line"
         style="line-height:1.45;stroke-width:0.264583"
         x="26.710894"
         y="157.696"
         id="tspan25">&lt;/html&gt;</tspan></text>
    <g
       id="g12"
       transform="matrix(0.73170555,0,0,0.73170555,-18.637383,-8.785289)">
      <path
         id="rect9"
         style="stroke-width:0.189051"
         d="m 103.28318,146.97889 h 1.69443 c 0.72983,0 1.31739,0.58756 1.31739,1.31739 v 1.69443 c 0,0.72982 -0.58756,1.31738 -1.31739,1.31738 h -1.69443 c -0.72982,0 -1.31738,-0.58756 -1.31738,-1.31738 v -1.69443 c 0,-0.72983 0.58756,-1.31739 1.31738,-1.31739 z" />
      <path
         d="m 103.51965,148.40679 q -0.29616,0 -0.46819,0.19785 -0.17082,0.19662 -0.17082,0.53947 0,0.35268 0.16467,0.54561 0.1659,0.19171 0.47188,0.19171 0.18802,0 0.42888,-0.0676 v 0.1831 q -0.18679,0.0701 -0.46082,0.0701 -0.39693,0 -0.61321,-0.24086 -0.21505,-0.24086 -0.21505,-0.68447 0,-0.27773 0.10322,-0.48663 0.10446,-0.20891 0.29985,-0.32197 0.19661,-0.11305 0.46205,-0.11305 0.28264,0 0.494,0.10322 l -0.0885,0.17941 q -0.20399,-0.0958 -0.40798,-0.0958 z m 1.02733,0.88847 v 0.74715 h -0.20891 v -1.7966 h 0.49278 q 0.33056,0 0.48785,0.12657 0.15853,0.12658 0.15853,0.38095 0,0.35637 -0.36129,0.48172 l 0.48786,0.80736 h -0.247 l -0.43502,-0.74715 z m 0,-0.17942 h 0.28633 q 0.22119,0 0.32441,-0.0872 0.10323,-0.0885 0.10323,-0.2642 0,-0.17818 -0.10569,-0.25683 -0.10445,-0.0787 -0.3367,-0.0787 h -0.27158 z"
         id="text9"
         style="font-size:3.52777px;line-height:1.25;font-family:'Open Sans';-inkscape-font-specification:'Open Sans';letter-spacing:0px;word-spacing:0px;fill:#ffffff;stroke-width:0.189051"
         aria-label="CR" />
      <path
         id="rect10"
         style="stroke-width:0.189051"
         d="m 108.34218,146.97951 h 1.69442 c 0.72984,0 1.31739,0.58756 1.31739,1.31739 v 1.69442 c 0,0.72983 -0.58755,1.31739 -1.31739,1.31739 h -1.69442 c -0.72983,0 -1.31738,-0.58756 -1.31738,-1.31739 v -1.69442 c 0,-0.72983 0.58755,-1.31739 1.31738,-1.31739 z" />
      <path
         d="m 108.03549,150.04241 v -1.7966 h 0.2089 v 1.60735 h 0.79263 v 0.18925 z m 1.51519,0 h -0.20891 v -1.7966 h 1.00152 v 0.18556 h -0.79261 v 0.65744 h 0.74469 v 0.18556 h -0.74469 z"
         id="text10"
         style="font-size:3.52777px;line-height:1.25;font-family:'Open Sans';-inkscape-font-specification:'Open Sans';letter-spacing:0px;word-spacing:0px;fill:#ffffff;stroke-width:0.189051"
         aria-label="LF" />
    </g>
    <g
       id="g15"
       transform="matrix(0.73170555,0,0,0.73170555,-7.6747904,-3.6923122)">
      <path
         id="path12"
         style="stroke-width:0.189051"
         d="m 103.28318,146.97889 h 1.69443 c 0.72983,0 1.31739,0.58756 1.31739,1.31739 v 1.69443 c 0,0.72982 -0.58756,1.31738 -1.31739,1.31738 h -1.69443 c -0.72982,0 -1.31738,-0.58756 -1.31738,-1.31738 v -1.69443 c 0,-0.72983 0.58756,-1.31739 1.31738,-1.31739 z" />
      <path
         d="m 103.51965,148.40679 q -0.29616,0 -0.46819,0.19785 -0.17082,0.19662 -0.17082,0.53947 0,0.35268 0.16467,0.54561 0.1659,0.19171 0.47188,0.19171 0.18802,0 0.42888,-0.0676 v 0.1831 q -0.18679,0.0701 -0.46082,0.0701 -0.39693,0 -0.61321,-0.24086 -0.21505,-0.24086 -0.21505,-0.68447 0,-0.27773 0.10322,-0.48663 0.10446,-0.20891 0.29985,-0.32197 0.19661,-0.11305 0.46205,-0.11305 0.28264,0 0.494,0.10322 l -0.0885,0.17941 q -0.20399,-0.0958 -0.40798,-0.0958 z m 1.02733,0.88847 v 0.74715 h -0.20891 v -1.7966 h 0.49278 q 0.33056,0 0.48785,0.12657 0.15853,0.12658 0.15853,0.38095 0,0.35637 -0.36129,0.48172 l 0.48786,0.80736 h -0.247 l -0.43502,-0.74715 z m 0,-0.17942 h 0.28633 q 0.22119,0 0.32441,-0.0872 0.10323,-0.0885 0.10323,-0.2642 0,-0.17818 -0.10569,-0.25683 -0.10445,-0.0787 -0.3367,-0.0787 h -0.27158 z"
         id="path13"
         style="font-size:3.52777px;line-height:1.25;font-family:'Open Sans';-inkscape-font-specification:'Open Sans';letter-spacing:0px;word-spacing:0px;fill:#ffffff;stroke-width:0.189051"
         aria-label="CR" />
      <path
         id="path14"
         style="stroke-width:0.189051"
         d="m 108.34218,146.97951 h 1.69442 c 0.72984,0 1.31739,0.58756 1.31739,1.31739 v 1.69442 c 0,0.72983 -0.58755,1.31739 -1.31739,1.31739 h -1.69442 c -0.72983,0 -1.31738,-0.58756 -1.31738,-1.31739 v -1.69442 c 0,-0.72983 0.58755,-1.31739 1.31738,-1.31739 z" />
      <path
         d="m 108.03549,150.04241 v -1.7966 h 0.2089 v 1.60735 h 0.79263 v 0.18925 z m 1.51519,0 h -0.20891 v -1.7966 h 1.00152 v 0.18556 h -0.79261 v 0.65744 h 0.74469 v 0.18556 h -0.74469 z"
         id="path15"
         style="font-size:3.52777px;line-height:1.25;font-family:'Open Sans';-inkscape-font-specification:'Open Sans';letter-spacing:0px;word-spacing:0px;fill:#ffffff;stroke-width:0.189051"
         aria-label="LF" />
    </g>
    <g
       id="g19"
       transform="matrix(0.73170555,0,0,0.73170555,-13.660198,1.261012)">
      <path
         id="path16"
         style="stroke-width:0.189051"
         d="m 103.28318,146.97889 h 1.69443 c 0.72983,0 1.31739,0.58756 1.31739,1.31739 v 1.69443 c 0,0.72982 -0.58756,1.31738 -1.31739,1.31738 h -1.69443 c -0.72982,0 -1.31738,-0.58756 -1.31738,-1.31738 v -1.69443 c 0,-0.72983 0.58756,-1.31739 1.31738,-1.31739 z" />
      <path
         d="m 103.51965,148.40679 q -0.29616,0 -0.46819,0.19785 -0.17082,0.19662 -0.17082,0.53947 0,0.35268 0.16467,0.54561 0.1659,0.19171 0.47188,0.19171 0.18802,0 0.42888,-0.0676 v 0.1831 q -0.18679,0.0701 -0.46082,0.0701 -0.39693,0 -0.61321,-0.24086 -0.21505,-0.24086 -0.21505,-0.68447 0,-0.27773 0.10322,-0.48663 0.10446,-0.20891 0.29985,-0.32197 0.19661,-0.11305 0.46205,-0.11305 0.28264,0 0.494,0.10322 l -0.0885,0.17941 q -0.20399,-0.0958 -0.40798,-0.0958 z m 1.02733,0.88847 v 0.74715 h -0.20891 v -1.7966 h 0.49278 q 0.33056,0 0.48785,0.12657 0.15853,0.12658 0.15853,0.38095 0,0.35637 -0.36129,0.48172 l 0.48786,0.80736 h -0.247 l -0.43502,-0.74715 z m 0,-0.17942 h 0.28633 q 0.22119,0 0.32441,-0.0872 0.10323,-0.0885 0.10323,-0.2642 0,-0.17818 -0.10569,-0.25683 -0.10445,-0.0787 -0.3367,-0.0787 h -0.27158 z"
         id="path17"
         style="font-size:3.52777px;line-height:1.25;font-family:'Open Sans';-inkscape-font-specification:'Open Sans';letter-spacing:0px;word-spacing:0px;fill:#ffffff;stroke-width:0.189051"
         aria-label="CR" />
      <path
         id="path18"
         style="stroke-width:0.189051"
         d="m 108.34218,146.97951 h 1.69442 c 0.72984,0 1.31739,0.58756 1.31739,1.31739 v 1.69442 c 0,0.72983 -0.58755,1.31739 -1.31739,1.31739 h -1.69442 c -0.72983,0 -1.31738,-0.58756 -1.31738,-1.31739 v -1.69442 c 0,-0.72983 0.58755,-1.31739 1.31738,-1.31739 z" />
      <path
         d="m 108.03549,150.04241 v -1.7966 h 0.2089 v 1.60735 h 0.79263 v 0.18925 z m 1.51519,0 h -0.20891 v -1.7966 h 1.00152 v 0.18556 h -0.79261 v 0.65744 h 0.74469 v 0.18556 h -0.74469 z"
         id="path19"
         style="font-size:3.52777px;line-height:1.25;font-family:'Open Sans';-inkscape-font-specification:'Open Sans';letter-spacing:0px;word-spacing:0px;fill:#ffffff;stroke-width:0.189051"
         aria-label="LF" />
    </g>
    <g
       id="g23"
       transform="matrix(0.73170555,0,0,0.73170555,-47.586028,6.3514372)">
      <path
         id="path20"
         style="stroke-width:0.189051"
         d="m 103.28318,146.97889 h 1.69443 c 0.72983,0 1.31739,0.58756 1.31739,1.31739 v 1.69443 c 0,0.72982 -0.58756,1.31738 -1.31739,1.31738 h -1.69443 c -0.72982,0 -1.31738,-0.58756 -1.31738,-1.31738 v -1.69443 c 0,-0.72983 0.58756,-1.31739 1.31738,-1.31739 z" />
      <path
         d="m 103.51965,148.40679 q -0.29616,0 -0.46819,0.19785 -0.17082,0.19662 -0.17082,0.53947 0,0.35268 0.16467,0.54561 0.1659,0.19171 0.47188,0.19171 0.18802,0 0.42888,-0.0676 v 0.1831 q -0.18679,0.0701 -0.46082,0.0701 -0.39693,0 -0.61321,-0.24086 -0.21505,-0.24086 -0.21505,-0.68447 0,-0.27773 0.10322,-0.48663 0.10446,-0.20891 0.29985,-0.32197 0.19661,-0.11305 0.46205,-0.11305 0.28264,0 0.494,0.10322 l -0.0885,0.17941 q -0.20399,-0.0958 -0.40798,-0.0958 z m 1.02733,0.88847 v 0.74715 h -0.20891 v -1.7966 h 0.49278 q 0.33056,0 0.48785,0.12657 0.15853,0.12658 0.15853,0.38095 0,0.35637 -0.36129,0.48172 l 0.48786,0.80736 h -0.247 l -0.43502,-0.74715 z m 0,-0.17942 h 0.28633 q 0.22119,0 0.32441,-0.0872 0.10323,-0.0885 0.10323,-0.2642 0,-0.17818 -0.10569,-0.25683 -0.10445,-0.0787 -0.3367,-0.0787 h -0.27158 z"
         id="path21"
         style="font-size:3.52777px;line-height:1.25;font-family:'Open Sans';-inkscape-font-specification:'Open Sans';letter-spacing:0px;word-spacing:0px;fill:#ffffff;stroke-width:0.189051"
         aria-label="CR" />
      <path
         id="path22"
         style="stroke-width:0.189051"
         d="m 108.34218,146.97951 h 1.69442 c 0.72984,0 1.31739,0.58756 1.31739,1.31739 v 1.69442 c 0,0.72983 -0.58755,1.31739 -1.31739,1.31739 h -1.69442 c -0.72983,0 -1.31738,-0.58756 -1.31738,-1.31739 v -1.69442 c 0,-0.72983 0.58755,-1.31739 1.31738,-1.31739 z" />
      <path
         d="m 108.03549,150.04241 v -1.7966 h 0.2089 v 1.60735 h 0.79263 v 0.18925 z m 1.51519,0 h -0.20891 v -1.7966 h 1.00152 v 0.18556 h -0.79261 v 0.65744 h 0.74469 v 0.18556 h -0.74469 z"
         id="path23"
         style="font-size:3.52777px;line-height:1.25;font-family:'Open Sans';-inkscape-font-specification:'Open Sans';letter-spacing:0px;word-spacing:0px;fill:#ffffff;stroke-width:0.189051"
         aria-label="LF" />
    </g>
    <g
       id="g27"
       transform="matrix(0.73170555,0,0,0.73170555,2.8078502,-1.1274343)">
      <path
         id="path26"
         style="stroke-width:0.189051"
         d="m 74.63443,164.28414 h 1.69442 c 0.72984,0 1.31739,0.58756 1.31739,1.31739 v 1.69442 c 0,0.72983 -0.58755,1.31739 -1.31739,1.31739 h -1.69442 c -0.72983,0 -1.31738,-0.58756 -1.31738,-1.31739 v -1.69442 c 0,-0.72983 0.58755,-1.31739 1.31738,-1.31739 z" />
      <path
         d="m 74.32774,167.34704 v -1.7966 h 0.2089 v 1.60735 h 0.79263 v 0.18925 z m 1.51519,0 h -0.20891 v -1.7966 h 1.00152 v 0.18556 h -0.79261 v 0.65744 h 0.74469 v 0.18556 h -0.74469 z"
         id="path27"
         style="font-size:3.52777px;line-height:1.25;font-family:'Open Sans';-inkscape-font-specification:'Open Sans';letter-spacing:0px;word-spacing:0px;fill:#ffffff;stroke-width:0.189051"
         aria-label="LF" />
    </g>
    <rect
       style="fill:none;fill-opacity:1;stroke:#bfbfbf;stroke-width:0.200023;stroke-dasharray:none;stroke-opacity:1"
       id="rect39"
       width="37.536983"
       height="5.2331767"
       x="26.10597"
       y="97.774643" />
    <rect
       style="fill:none;fill-opacity:1;stroke:#bfbfbf;stroke-width:0.203685;stroke-dasharray:none;stroke-opacity:1"
       id="rect41"
       width="8.7244005"
       height="4.5076637"
       x="26.10597"
       y="113.19633" />
    <rect
       style="fill:none;fill-opacity:1;stroke:#bfbfbf;stroke-width:0.182129;stroke-dasharray:none;stroke-opacity:1"
       id="rect42"
       width="69.703423"
       height="42.050007"
       x="26.097033"
       y="117.70399" />
    <text
       xml:space="preserve"
       style="font-size:3.52777px;line-height:1.25;font-family:'Open Sans';-inkscape-font-specification:'Open Sans';letter-spacing:0px;word-spacing:0px;stroke-width:0.264583"
       x="135.26605"
       y="101.10528"
       id="text42"><tspan
         sodipodi:role="line"
         id="tspan42"
         style="stroke-width:0.264583"
         x="135.26605"
         y="101.10528">začetna vrstica</tspan></text>
    <path
       style="fill:none;stroke:#bfbfbf;stroke-width:0.264584px;stroke-linecap:butt;stroke-linejoin:miter;stroke-opacity:1"
       d="M 63.720801,100.01255 H 134.8741"
       id="path42" />
    <text
       xml:space="preserve"
       style="font-size:3.52777px;line-height:1.25;font-family:'Open Sans';-inkscape-font-specification:'Open Sans';letter-spacing:0px;word-spacing:0px;stroke-width:0.264583"
       x="135.37476"
       y="108.79963"
       id="text43"><tspan
         sodipodi:role="line"
         id="tspan43"
         style="stroke-width:0.264583"
         x="135.37476"
         y="108.79963">glave</tspan></text>
    <path
       style="fill:none;stroke:#bfbfbf;stroke-width:0.264584px;stroke-linecap:butt;stroke-linejoin:miter;stroke-opacity:1"
       d="M 75.042637,107.88316 H 134.87935"
       id="path43" />
    <text
       xml:space="preserve"
       style="font-size:3.52777px;line-height:1.25;font-family:'Open Sans';-inkscape-font-specification:'Open Sans';letter-spacing:0px;word-spacing:0px;stroke-width:0.264583"
       x="135.15591"
       y="116.36927"
       id="text44"><tspan
         sodipodi:role="line"
         id="tspan44"
         style="stroke-width:0.264583"
         x="135.15591"
         y="116.36927">prazna vrstica</tspan></text>
    <path
       style="fill:none;stroke:#bfbfbf;stroke-width:0.264583px;stroke-linecap:butt;stroke-linejoin:miter;stroke-opacity:1"
       d="M 34.932216,115.448 H 134.87842"
       id="path44" />
    <text
       xml:space="preserve"
       style="font-size:3.52777px;line-height:1.25;font-family:'Open Sans';-inkscape-font-specification:'Open Sans';letter-spacing:0px;word-spacing:0px;stroke-width:0.264583"
       x="135.15591"
       y="137.54509"
       id="text45"><tspan
         sodipodi:role="line"
         id="tspan45"
         style="stroke-width:0.264583"
         x="135.15591"
         y="137.54509">vsebina</tspan></text>
    <rect
       style="fill:none;fill-opacity:1;stroke:#bfbfbf;stroke-width:0.19998;stroke-dasharray:none;stroke-opacity:1"
       id="rect45"
       width="48.920998"
       height="10.187226"
       x="26.105879"
       y="103.00782" />
    <path
       style="fill:none;stroke:#cc0000;stroke-width:0.264583px;stroke-linecap:butt;stroke-linejoin:miter;stroke-opacity:1"
       d="m 31.409402,98.271789 v -8.17735"
       id="path48" />
    <path
       style="fill:none;stroke:#cc0000;stroke-width:0.264582px;stroke-linecap:butt;stroke-linejoin:miter;stroke-opacity:1"
       d="M 45.636717,98.271783 V 83.112412"
       id="path49" />
    <rect
       style="fill:none;fill-opacity:1;stroke:#cc0000;stroke-width:0.199999;stroke-dasharray:none;stroke-opacity:1"
       id="rect50"
       width="5.4750762"
       height="4.0389018"
       x="49.4757"
       y="98.37178" />
    <path
       style="fill:none;stroke:#bfbfbf;stroke-width:0.264583px;stroke-linecap:butt;stroke-linejoin:miter;stroke-opacity:1"
       d="M 95.800455,136.25322 H 134.7766"
       id="path50" />
    <path
       style="fill:none;stroke:#cc0000;stroke-width:0.264583px;stroke-linecap:butt;stroke-linejoin:miter;stroke-opacity:1"
       d="m 53.270648,98.271782 v -8.17735"
       id="path51" />
    <text
       xml:space="preserve"
       style="font-size:3.52777px;line-height:1.25;font-family:'Open Sans';-inkscape-font-specification:'Open Sans';letter-spacing:0px;word-spacing:0px;stroke-width:0.264583"
       x="22.228073"
       y="89.463615"
       id="text51"><tspan
         sodipodi:role="line"
         id="tspan51"
         style="stroke-width:0.264583"
         x="22.228073"
         y="89.463615">HTTP-verzija</tspan></text>
    <text
       xml:space="preserve"
       style="font-size:3.52777px;line-height:1.25;font-family:'Open Sans';-inkscape-font-specification:'Open Sans';letter-spacing:0px;word-spacing:0px;stroke-width:0.264583"
       x="36.220428"
       y="82.58445"
       id="text52"><tspan
         sodipodi:role="line"
         id="tspan52"
         style="stroke-width:0.264583"
         x="36.220428"
         y="82.58445">status koda</tspan></text>
    <rect
       style="fill:none;fill-opacity:1;stroke:#99cc33;stroke-width:0.200001;stroke-dasharray:none;stroke-opacity:1"
       id="rect54"
       width="22.035007"
       height="4.1079669"
       x="26.630589"
       y="103.57929" />
    <rect
       style="fill:none;fill-opacity:1;stroke:#99cc33;stroke-width:0.199999;stroke-dasharray:none;stroke-opacity:1"
       id="rect55"
       width="15.644508"
       height="4.1080008"
       x="50.174347"
       y="103.57929" />
    <path
       style="fill:none;stroke:#99cc33;stroke-width:0.264583px;stroke-linecap:butt;stroke-linejoin:miter;stroke-opacity:1"
       d="M 26.630591,105.46241 H 19.110795"
       id="path55" />
    <text
       xml:space="preserve"
       style="font-size:3.52777px;line-height:1.25;font-family:'Open Sans';-inkscape-font-specification:'Open Sans';letter-spacing:0px;word-spacing:0px;stroke-width:0.264583"
       x="12.435412"
       y="106.33221"
       id="text55"><tspan
         sodipodi:role="line"
         id="tspan55"
         style="stroke-width:0.264583"
         x="12.435412"
         y="106.33221">ime</tspan></text>
    <path
       style="fill:none;stroke:#99cc33;stroke-width:0.264583px;stroke-linecap:butt;stroke-linejoin:miter;stroke-opacity:1"
       d="m 50.174293,107.69064 -0.905174,0.96734 -26.006637,-0.0339"
       id="path56"
       sodipodi:nodetypes="ccc" />
    <text
       xml:space="preserve"
       style="font-size:3.52777px;line-height:1.25;font-family:'Open Sans';-inkscape-font-specification:'Open Sans';letter-spacing:0px;word-spacing:0px;stroke-width:0.264583"
       x="8.345232"
       y="109.86688"
       id="text56"><tspan
         sodipodi:role="line"
         id="tspan56"
         style="stroke-width:0.264583"
         x="8.345232"
         y="109.86688">vrednost</tspan></text>
    <text
       xml:space="preserve"
       style="font-size:3.52777px;line-height:1.25;font-family:'Open Sans';-inkscape-font-specification:'Open Sans';letter-spacing:0px;word-spacing:0px;stroke-width:0.264583"
       x="48.192589"
       y="89.463615"
       id="text26"><tspan
         sodipodi:role="line"
         id="tspan26"
         style="stroke-width:0.264583"
         x="48.192589"
         y="89.463615">razlog</tspan></text>
    <g
       id="g29"
       transform="matrix(0.73170555,0,0,0.73170555,-14.514784,3.9973892)">
      <path
         id="path28"
         style="stroke-width:0.189051"
         d="m 74.63443,164.28414 h 1.69442 c 0.72984,0 1.31739,0.58756 1.31739,1.31739 v 1.69442 c 0,0.72983 -0.58755,1.31739 -1.31739,1.31739 h -1.69442 c -0.72983,0 -1.31738,-0.58756 -1.31738,-1.31739 v -1.69442 c 0,-0.72983 0.58755,-1.31739 1.31738,-1.31739 z" />
      <path
         d="m 74.32774,167.34704 v -1.7966 h 0.2089 v 1.60735 h 0.79263 v 0.18925 z m 1.51519,0 h -0.20891 v -1.7966 h 1.00152 v 0.18556 h -0.79261 v 0.65744 h 0.74469 v 0.18556 h -0.74469 z"
         id="path29"
         style="font-size:3.52777px;line-height:1.25;font-family:'Open Sans';-inkscape-font-specification:'Open Sans';letter-spacing:0px;word-spacing:0px;fill:#ffffff;stroke-width:0.189051"
         aria-label="LF" />
    </g>
    <g
       id="g31"
       transform="matrix(0.73170555,0,0,0.73170555,-10.301112,9.1120925)">
      <path
         id="path30"
         style="stroke-width:0.189051"
         d="m 74.63443,164.28414 h 1.69442 c 0.72984,0 1.31739,0.58756 1.31739,1.31739 v 1.69442 c 0,0.72983 -0.58755,1.31739 -1.31739,1.31739 h -1.69442 c -0.72983,0 -1.31738,-0.58756 -1.31738,-1.31739 v -1.69442 c 0,-0.72983 0.58755,-1.31739 1.31738,-1.31739 z" />
      <path
         d="m 74.32774,167.34704 v -1.7966 h 0.2089 v 1.60735 h 0.79263 v 0.18925 z m 1.51519,0 h -0.20891 v -1.7966 h 1.00152 v 0.18556 h -0.79261 v 0.65744 h 0.74469 v 0.18556 h -0.74469 z"
         id="path31"
         style="font-size:3.52777px;line-height:1.25;font-family:'Open Sans';-inkscape-font-specification:'Open Sans';letter-spacing:0px;word-spacing:0px;fill:#ffffff;stroke-width:0.189051"
         aria-label="LF" />
    </g>
    <g
       id="g33"
       transform="matrix(0.73170555,0,0,0.73170555,23.565553,14.246459)">
      <path
         id="path32"
         style="stroke-width:0.189051"
         d="m 74.63443,164.28414 h 1.69442 c 0.72984,0 1.31739,0.58756 1.31739,1.31739 v 1.69442 c 0,0.72983 -0.58755,1.31739 -1.31739,1.31739 h -1.69442 c -0.72983,0 -1.31738,-0.58756 -1.31738,-1.31739 v -1.69442 c 0,-0.72983 0.58755,-1.31739 1.31738,-1.31739 z" />
      <path
         d="m 74.32774,167.34704 v -1.7966 h 0.2089 v 1.60735 h 0.79263 v 0.18925 z m 1.51519,0 h -0.20891 v -1.7966 h 1.00152 v 0.18556 h -0.79261 v 0.65744 h 0.74469 v 0.18556 h -0.74469 z"
         id="path33"
         style="font-size:3.52777px;line-height:1.25;font-family:'Open Sans';-inkscape-font-specification:'Open Sans';letter-spacing:0px;word-spacing:0px;fill:#ffffff;stroke-width:0.189051"
         aria-label="LF" />
    </g>
    <g
       id="g35"
       transform="matrix(0.73170555,0,0,0.73170555,13.255761,19.341501)">
      <path
         id="path34"
         style="stroke-width:0.189051"
         d="m 74.63443,164.28414 h 1.69442 c 0.72984,0 1.31739,0.58756 1.31739,1.31739 v 1.69442 c 0,0.72983 -0.58755,1.31739 -1.31739,1.31739 h -1.69442 c -0.72983,0 -1.31738,-0.58756 -1.31738,-1.31739 v -1.69442 c 0,-0.72983 0.58755,-1.31739 1.31738,-1.31739 z" />
      <path
         d="m 74.32774,167.34704 v -1.7966 h 0.2089 v 1.60735 h 0.79263 v 0.18925 z m 1.51519,0 h -0.20891 v -1.7966 h 1.00152 v 0.18556 h -0.79261 v 0.65744 h 0.74469 v 0.18556 h -0.74469 z"
         id="path35"
         style="font-size:3.52777px;line-height:1.25;font-family:'Open Sans';-inkscape-font-specification:'Open Sans';letter-spacing:0px;word-spacing:0px;fill:#ffffff;stroke-width:0.189051"
         aria-label="LF" />
    </g>
    <g
       id="g37"
       transform="matrix(0.73170555,0,0,0.73170555,37.304217,24.554517)">
      <path
         id="path36"
         style="stroke-width:0.189051"
         d="m 74.63443,164.28414 h 1.69442 c 0.72984,0 1.31739,0.58756 1.31739,1.31739 v 1.69442 c 0,0.72983 -0.58755,1.31739 -1.31739,1.31739 h -1.69442 c -0.72983,0 -1.31738,-0.58756 -1.31738,-1.31739 v -1.69442 c 0,-0.72983 0.58755,-1.31739 1.31738,-1.31739 z" />
      <path
         d="m 74.32774,167.34704 v -1.7966 h 0.2089 v 1.60735 h 0.79263 v 0.18925 z m 1.51519,0 h -0.20891 v -1.7966 h 1.00152 v 0.18556 h -0.79261 v 0.65744 h 0.74469 v 0.18556 h -0.74469 z"
         id="path37"
         style="font-size:3.52777px;line-height:1.25;font-family:'Open Sans';-inkscape-font-specification:'Open Sans';letter-spacing:0px;word-spacing:0px;fill:#ffffff;stroke-width:0.189051"
         aria-label="LF" />
    </g>
    <g
       id="g39"
       transform="matrix(0.73170555,0,0,0.73170555,-8.8445137,29.568114)">
      <path
         id="path38"
         style="stroke-width:0.189051"
         d="m 74.63443,164.28414 h 1.69442 c 0.72984,0 1.31739,0.58756 1.31739,1.31739 v 1.69442 c 0,0.72983 -0.58755,1.31739 -1.31739,1.31739 h -1.69442 c -0.72983,0 -1.31738,-0.58756 -1.31738,-1.31739 v -1.69442 c 0,-0.72983 0.58755,-1.31739 1.31738,-1.31739 z" />
      <path
         d="m 74.32774,167.34704 v -1.7966 h 0.2089 v 1.60735 h 0.79263 v 0.18925 z m 1.51519,0 h -0.20891 v -1.7966 h 1.00152 v 0.18556 h -0.79261 v 0.65744 h 0.74469 v 0.18556 h -0.74469 z"
         id="path39"
         style="font-size:3.52777px;line-height:1.25;font-family:'Open Sans';-inkscape-font-specification:'Open Sans';letter-spacing:0px;word-spacing:0px;fill:#ffffff;stroke-width:0.189051"
         aria-label="LF" />
    </g>
    <g
       id="g41"
       transform="matrix(0.73170555,0,0,0.73170555,-12.995332,34.669903)">
      <path
         id="path40"
         style="stroke-width:0.189051"
         d="m 74.63443,164.28414 h 1.69442 c 0.72984,0 1.31739,0.58756 1.31739,1.31739 v 1.69442 c 0,0.72983 -0.58755,1.31739 -1.31739,1.31739 h -1.69442 c -0.72983,0 -1.31738,-0.58756 -1.31738,-1.31739 v -1.69442 c 0,-0.72983 0.58755,-1.31739 1.31738,-1.31739 z" />
      <path
         d="m 74.32774,167.34704 v -1.7966 h 0.2089 v 1.60735 h 0.79263 v 0.18925 z m 1.51519,0 h -0.20891 v -1.7966 h 1.00152 v 0.18556 h -0.79261 v 0.65744 h 0.74469 v 0.18556 h -0.74469 z"
         id="path41"
         style="font-size:3.52777px;line-height:1.25;font-family:'Open Sans';-inkscape-font-specification:'Open Sans';letter-spacing:0px;word-spacing:0px;fill:#ffffff;stroke-width:0.189051"
         aria-label="LF" />
    </g>
    <text
       xml:space="preserve"
       style="font-size:3.52777px;line-height:1.25;font-family:'Open Sans';-inkscape-font-specification:'Open Sans';letter-spacing:0px;word-spacing:0px;fill:#cc0000;stroke-width:0.264583"
       x="44.500992"
       y="157.76112"
       id="text41"><tspan
         sodipodi:role="line"
         id="tspan41"
         style="fill:#cc0000;stroke-width:0.264583"
         x="44.500992"
         y="157.76112">!!</tspan></text>
  </g>
</svg>
